<svg xmlns="http://www.w3.org/2000/svg" viewBox="0 0 64 64">
  <defs>
    <linearGradient id="fireGrad" x1="0%" y1="100%" x2="0%" y2="0%">
      <stop offset="0%" style="stop-color:#FF6B00;stop-opacity:1" />
      <stop offset="50%" style="stop-color:#D4AF37;stop-opacity:1" />
      <stop offset="100%" style="stop-color:#E8C553;stop-opacity:1" />
    </linearGradient>
  </defs>
  <!-- Outer flame -->
  <path d="M32 4C32 4 14 22 14 38c0 9.941 8.059 18 18 18s18-8.059 18-18C50 22 32 4 32 4z" fill="url(#fireGrad)"/>
  <!-- Inner flame (darker, smaller) -->
  <path d="M32 20C32 20 22 30 22 39c0 5.523 4.477 10 10 10s10-4.477 10-10C42 30 32 20 32 20z" fill="#0F0F0F" opacity="0.3"/>
  <!-- Bright inner core -->
  <path d="M32 32C32 32 27 36 27 41c0 2.761 2.239 5 5 5s5-2.239 5-5C37 36 32 32 32 32z" fill="#E8C553" opacity="0.8"/>
</svg>
